<?xml version="1.0" encoding="UTF-8" standalone="no"?>
<!-- Created with Inkscape (http://www.inkscape.org/) -->

<svg
   xmlns:osb="http://www.openswatchbook.org/uri/2009/osb"
   xmlns:dc="http://purl.org/dc/elements/1.1/"
   xmlns:cc="http://creativecommons.org/ns#"
   xmlns:rdf="http://www.w3.org/1999/02/22-rdf-syntax-ns#"
   xmlns:svg="http://www.w3.org/2000/svg"
   xmlns="http://www.w3.org/2000/svg"
   xmlns:sodipodi="http://sodipodi.sourceforge.net/DTD/sodipodi-0.dtd"
   xmlns:inkscape="http://www.inkscape.org/namespaces/inkscape"
   width="82.810303"
   height="56.5"
   id="svg3634"
   version="1.1"
   inkscape:version="0.48.4 r9939"
   viewbox="0 0 82.81 56.50"
   sodipodi:docname="logo.svg">
  <defs
     id="defs3636">
    <linearGradient
       id="linearGradient3776"
       osb:paint="solid"
       gradientTransform="matrix(7.6701956e-6,0,0,2.2837382e-6,226.94157,286.15512)">
      <stop
         style="stop-color:#ebfdd0;stop-opacity:1;"
         offset="0"
         id="stop3778" />
    </linearGradient>
    <linearGradient
       id="linearGradient3609"
       osb:paint="solid"
       gradientTransform="matrix(7.6701956e-6,0,0,2.2837382e-6,226.94157,286.15512)">
      <stop
         style="stop-color:#ebfdd0;stop-opacity:1;"
         offset="0"
         id="stop3611" />
    </linearGradient>
    <linearGradient
       id="linearGradient3613"
       osb:paint="solid"
       gradientTransform="matrix(7.6701956e-6,0,0,2.2837382e-6,226.94157,286.15512)">
      <stop
         style="stop-color:#ebfdd0;stop-opacity:1;"
         offset="0"
         id="stop3615" />
    </linearGradient>
    <linearGradient
       id="linearGradient3617"
       osb:paint="solid"
       gradientTransform="matrix(7.6701956e-6,0,0,2.2837382e-6,226.94157,286.15512)">
      <stop
         style="stop-color:#ebfdd0;stop-opacity:1;"
         offset="0"
         id="stop3619" />
    </linearGradient>
    <linearGradient
       id="linearGradient3621"
       osb:paint="solid"
       gradientTransform="matrix(7.6701956e-6,0,0,2.2837382e-6,226.94157,286.15512)">
      <stop
         style="stop-color:#ebfdd0;stop-opacity:1;"
         offset="0"
         id="stop3623" />
    </linearGradient>
  </defs>
  <sodipodi:namedview
     id="base"
     pagecolor="#ffffff"
     bordercolor="#666666"
     borderopacity="1.0"
     inkscape:pageopacity="0.0"
     inkscape:pageshadow="2"
     inkscape:zoom="5.6"
     inkscape:cx="6.017001"
     inkscape:cy="37.867975"
     inkscape:document-units="px"
     inkscape:current-layer="layer1"
     showgrid="false"
     fit-margin-top="0"
     fit-margin-left="0"
     fit-margin-right="0"
     fit-margin-bottom="0"
     inkscape:window-width="1366"
     inkscape:window-height="706"
     inkscape:window-x="-8"
     inkscape:window-y="-8"
     inkscape:window-maximized="1" />
  <metadata
     id="metadata3639">
    <rdf:RDF>
      <cc:Work
         rdf:about="">
        <dc:format>image/svg+xml</dc:format>
        <dc:type
           rdf:resource="http://purl.org/dc/dcmitype/StillImage" />
        <dc:title />
      </cc:Work>
    </rdf:RDF>
  </metadata>
  <g
     inkscape:label="Layer 1"
     inkscape:groupmode="layer"
     id="layer1"
     transform="translate(-304.30914,-246.96932)">
    <g
       transform="translate(176.25987,-32.999115)"
       id="g3569"
       style="fill:#effed8;fill-opacity:1">
      <path
         id="path3565"
         transform="translate(32.17207,280.53094)"
         d="m 150.40625,-0.5625 c -15.60696,0 -28.25,12.643044 -28.25,28.25 0,15.606956 12.64304,28.25 28.25,28.25 15.60696,0 28.28125,-12.643044 28.28125,-28.25 0,-15.606956 -12.67429,-28.25 -28.28125,-28.25 z M 166.25,15.65625 a 0.93321429,0.93321429 0 0 1 0.375,0.09375 0.93321429,0.93321429 0 0 1 0.5625,0.78125 c 0.27761,3.563317 -0.34424,7.160529 -1.75,10.4375 0.76633,0.399384 1.49734,0.814701 2.21875,1.28125 0.377,0.22986 0.54506,0.74908 0.375,1.15625 -3.91328,8.91442 -12.96643,14.98784 -23.28125,14.65625 -3.86771,-0.12435 -7.48362,-1.17414 -10.6875,-2.875 -0.0781,-0.0414 -0.1724,-0.05145 -0.25,-0.09375 -0.36335,-0.22263 -0.52062,-0.72454 -0.375,-1.125 0.14562,-0.40045 0.57853,-0.65645 1,-0.59375 1.29207,0.27315 2.63487,0.42485 4,0.46875 9.7581,0.31369 18.27225,-5.56289 21.75,-14.09375 0.12369,-0.32144 0.43843,-0.56065 0.78125,-0.59375 0.11715,-0.001 0.23445,0.0203 0.34375,0.0625 0.82818,0.270982 1.6475,0.592142 2.4375,0.9375 1.27101,-2.986058 1.81518,-6.225327 1.5625,-9.46875 a 0.93321429,0.93321429 0 0 1 0.75,-1 0.93321429,0.93321429 0 0 1 0.1875,-0.03125 z"
         style="fill:#effed8;fill-opacity:1;stroke:none"
         inkscape:connector-curvature="0" />
      <g
         id="g3545"
         style="fill:#effed8;fill-opacity:1">
        <g
           id="g3537"
           style="fill:#effed8;fill-opacity:1">
          <path
             inkscape:connector-curvature="0"
             id="path4768"
             d="m 131.88821,301.15927 c 0.30469,19.44409 -4.42093,32.82916 2.02695,32.82916 6.44787,0 1.72485,-13.38507 2.02954,-32.82916 l -2.02954,0 -2.02695,0 z m 2.02695,27.44827 c 1.22198,0 2.21428,0.9923 2.21428,2.21428 0,1.22198 -0.9923,2.21429 -2.21428,2.21429 -1.22198,0 -2.21169,-0.99231 -2.21169,-2.21429 0,-1.22198 0.98971,-2.21428 2.21169,-2.21428 z"
             style="fill:#effed8;fill-opacity:1;stroke:none" />
          <path
             sodipodi:nodetypes="cssssccsssccsssccssscc"
             inkscape:connector-curvature="0"
             id="rect4745"
             d="m 128.04927,284.02978 0,15.1175 c 0,2.07418 2.44569,3.74165 5.48097,3.74165 l 0.77134,0 c 2.95116,0 5.48097,-1.66747 5.48097,-3.74165 l 0,-15.1175 -1.51372,0 0,12.26077 c 0,0.518 -0.42363,0.93411 -0.94772,0.93411 -0.52409,0 -0.94508,-0.41611 -0.94508,-0.93411 l 0,-12.26077 -1.51372,0 0,12.82279 c 0,0.51801 -0.421,0.93411 -0.94509,0.93411 -0.52409,0 -0.94772,-0.4161 -0.94772,-0.93411 l 0,-12.82279 -1.51371,0 0,12.26077 c 0,0.518 -0.421,0.93411 -0.94509,0.93411 -0.52409,0 -0.94508,-0.41611 -0.94508,-0.93411 l 0,-12.26077 z"
             style="fill:#effed8;fill-opacity:1;stroke:none" />
        </g>
        <g
           id="g3541"
           style="fill:#effed8;fill-opacity:1">
          <path
             inkscape:connector-curvature="0"
             style="fill:#effed8;fill-opacity:1;stroke:none"
             d="m 145.13484,301.15927 c 0.30469,19.44409 -4.42093,32.82916 2.02694,32.82916 6.44788,0 1.72486,-13.38507 2.02955,-32.82916 l -2.02955,0 -2.02694,0 z m 2.02694,27.44827 c 1.22198,0 2.21429,0.9923 2.21429,2.21428 0,1.22198 -0.99231,2.21429 -2.21429,2.21429 -1.22198,0 -2.21168,-0.99231 -2.21168,-2.21429 0,-1.22198 0.9897,-2.21428 2.21168,-2.21428 z"
             id="path4771" />
          <path
             sodipodi:nodetypes="cccc"
             inkscape:connector-curvature="0"
             id="path4773"
             d="m 149.13408,306.9398 0,-24.47942 c -2.57371,2.52058 -9.51949,18.56085 -3.99664,24.979 z"
             style="fill:#effed8;fill-opacity:1;stroke:none" />
        </g>
      </g>
    </g>
  </g>
</svg>
