<?xml version="1.0" encoding="UTF-8" standalone="no"?>
<!-- Created with Inkscape (http://www.inkscape.org/) -->

<svg
   xmlns:osb="http://www.openswatchbook.org/uri/2009/osb"
   xmlns:dc="http://purl.org/dc/elements/1.1/"
   xmlns:cc="http://creativecommons.org/ns#"
   xmlns:rdf="http://www.w3.org/1999/02/22-rdf-syntax-ns#"
   xmlns:svg="http://www.w3.org/2000/svg"
   xmlns="http://www.w3.org/2000/svg"
   xmlns:sodipodi="http://sodipodi.sourceforge.net/DTD/sodipodi-0.dtd"
   xmlns:inkscape="http://www.inkscape.org/namespaces/inkscape"
   width="82.810303"
   height="56.5"
   id="svg3634"
   version="1.1"
   inkscape:version="0.91 r13725"
   viewbox="0 0 82.81 56.50"
   sodipodi:docname="logo.svg">
  <defs
     id="defs3636">
    <linearGradient
       id="linearGradient3776"
       gradientTransform="matrix(7.6701956e-6,0,0,2.2837382e-6,226.94157,286.15512)">
      <stop
         style="stop-color:#ebfdd0;stop-opacity:1;"
         offset="0"
         id="stop3778" />
    </linearGradient>
    <linearGradient
       id="linearGradient3609"
       gradientTransform="matrix(7.6701956e-6,0,0,2.2837382e-6,226.94157,286.15512)">
      <stop
         style="stop-color:#ebfdd0;stop-opacity:1;"
         offset="0"
         id="stop3611" />
    </linearGradient>
    <linearGradient
       id="linearGradient3613"
       gradientTransform="matrix(7.6701956e-6,0,0,2.2837382e-6,226.94157,286.15512)">
      <stop
         style="stop-color:#ebfdd0;stop-opacity:1;"
         offset="0"
         id="stop3615" />
    </linearGradient>
    <linearGradient
       id="linearGradient3617"
       gradientTransform="matrix(7.6701956e-6,0,0,2.2837382e-6,226.94157,286.15512)">
      <stop
         style="stop-color:#ebfdd0;stop-opacity:1;"
         offset="0"
         id="stop3619" />
    </linearGradient>
    <linearGradient
       id="linearGradient3621"
       gradientTransform="matrix(7.6701956e-6,0,0,2.2837382e-6,226.94157,286.15512)">
      <stop
         style="stop-color:#ebfdd0;stop-opacity:1;"
         offset="0"
         id="stop3623" />
    </linearGradient>
    <linearGradient
       gradientTransform="matrix(5.0975911e-6,0,0,1.5177662e-6,439.41887,257.20937)"
       osb:paint="solid"
       id="linearGradient3776-8">
      <stop
         id="stop3778-1"
         offset="0"
         style="stop-color:#effed8;stop-opacity:1;" />
    </linearGradient>
    <linearGradient
       gradientTransform="matrix(0.35829095,0,0,0.10667822,1240.9231,463.26077)"
       id="linearGradient3245">
      <stop
         id="stop3247"
         offset="0"
         style="stop-color:#ebfdd0;stop-opacity:1;" />
    </linearGradient>
    <linearGradient
       gradientTransform="matrix(-1.7647974e-4,8.8870183e-5,-1.1103261e-4,-2.2049279e-4,87.584323,-4.53445)"
       osb:paint="solid"
       id="linearGradient3758">
      <stop
         id="stop3760"
         offset="0"
         style="stop-color:#547980;stop-opacity:1;" />
    </linearGradient>
    <linearGradient
       gradientTransform="matrix(0.83981384,0,0,1.0492585,770.64651,-379.83489)"
       id="linearGradient3251">
      <stop
         id="stop3253"
         offset="0"
         style="stop-color:#547980;stop-opacity:1;" />
    </linearGradient>
  </defs>
  <sodipodi:namedview
     id="base"
     pagecolor="#ffffff"
     bordercolor="#666666"
     borderopacity="1.0"
     inkscape:pageopacity="0.0"
     inkscape:pageshadow="2"
     inkscape:zoom="15.099815"
     inkscape:cx="41.405148"
     inkscape:cy="28.25"
     inkscape:document-units="px"
     inkscape:current-layer="layer1"
     showgrid="false"
     fit-margin-top="0"
     fit-margin-left="0"
     fit-margin-right="0"
     fit-margin-bottom="0"
     inkscape:window-width="1920"
     inkscape:window-height="1018"
     inkscape:window-x="1912"
     inkscape:window-y="-8"
     inkscape:window-maximized="1" />
  <metadata
     id="metadata3639">
    <rdf:RDF>
      <cc:Work
         rdf:about="">
        <dc:format>image/svg+xml</dc:format>
        <dc:type
           rdf:resource="http://purl.org/dc/dcmitype/StillImage" />
        <dc:title />
      </cc:Work>
    </rdf:RDF>
  </metadata>
  <g
     inkscape:label="Layer 1"
     inkscape:groupmode="layer"
     id="layer1"
     transform="translate(-304.30914,-246.96932)">
    <path
       id="path3031"
       d="m 358.83252,246.97394 c -15.60441,0 -28.24539,12.64103 -28.24539,28.24538 0,15.60448 12.64098,28.24538 28.24539,28.24538 15.60441,0 28.28692,-12.6409 28.28692,-28.24538 0,-15.60435 -12.68251,-28.24538 -28.28692,-28.24538 z m -33.45832,2.4715 c -2.56202,2.50912 -9.4184,18.42915 -4.02912,24.9016 -0.54258,16.01752 -3.67732,26.62542 2.05609,26.62542 6.44683,0 1.73069,-13.37369 2.03533,-32.81449 l -0.0623,0 0,-18.71253 z m -17.00954,1.39147 -0.64383,12.44039 c -0.0268,0.51719 -0.41059,0.93463 -0.93459,0.93463 -0.52401,0 -0.97613,-0.4167 -0.97613,-0.93463 l 0.3323,-12.25344 -0.76844,0 -1.0592,15.09878 c -0.11753,1.67632 1.61845,3.0965 3.8422,3.57222 0.0449,18.59676 -4.27984,31.2776 1.9938,31.2776 6.27362,0 1.99032,-12.68084 2.03532,-31.2776 2.18529,-0.48204 3.84221,-1.89929 3.84221,-3.57222 l -1.0592,-15.09878 -0.76845,0 0.3323,12.25344 c 0.014,0.51773 -0.45212,0.93463 -0.97612,0.93463 -0.52401,0 -0.93459,-0.4167 -0.93459,-0.93463 l -0.64383,-12.44039 -0.85152,0 0,13.00118 c 0,0.51799 -0.41059,0.93456 -0.93459,0.93456 -0.52401,0 -0.97612,-0.41657 -0.97612,-0.93456 l 0,-13.00118 -0.85152,0 z m 66.23127,12.35732 0.0831,0 c 0.12969,0.007 0.25721,0.0266 0.37383,0.0831 0.30983,0.13286 0.53308,0.45333 0.56076,0.78928 0.27756,3.56271 -0.33904,7.14934 -1.74457,10.4258 0.76621,0.39923 1.50095,0.82125 2.22225,1.28773 0.37693,0.22988 0.54386,0.75591 0.37383,1.16304 -3.91264,8.91298 -12.96854,14.97351 -23.28167,14.64188 -3.86708,-0.12422 -7.47174,-1.16531 -10.6751,-2.86608 -0.0781,-0.0412 -0.1924,-0.0611 -0.26999,-0.10387 -0.36329,-0.22264 -0.51943,-0.72109 -0.37383,-1.12145 0.14559,-0.40042 0.59626,-0.64426 1.01766,-0.58152 1.29186,0.27315 2.62268,0.41292 3.98758,0.45685 9.75651,0.31362 18.26762,-5.55158 21.7448,-14.08109 0.12367,-0.32147 0.44644,-0.56923 0.78921,-0.60233 0.11712,0 0.22301,0.0219 0.33229,0.0625 0.82805,0.27095 1.66083,0.58929 2.45071,0.93462 1.2708,-2.98557 1.81029,-6.22754 1.55765,-9.47051 -0.0412,-0.45459 0.29971,-0.90917 0.74767,-0.9969 0.0306,-0.012 0.0721,-0.012 0.10384,-0.0206 z m -64.44516,32.39912 c 1.22178,0 2.22224,1.00048 2.22224,2.22228 0,1.22179 -1.00046,2.20148 -2.22224,2.20148 -1.22178,0 -2.18071,-0.97969 -2.18071,-2.20148 0,-1.2218 0.95893,-2.22228 2.18071,-2.22228 z m 13.2504,0 c 1.22179,0 2.22225,1.00048 2.22225,2.22228 0,1.22179 -1.00046,2.20148 -2.22225,2.20148 -1.22178,0 -2.18071,-0.97969 -2.18071,-2.20148 0,-1.2218 0.95893,-2.22228 2.18071,-2.22228 z"
       style="display:inline;fill:url(#linearGradient3776-8);fill-opacity:1;stroke:none"
       inkscape:connector-curvature="0" />
  </g>
</svg>
