<?xml version="1.0" encoding="UTF-8" standalone="no"?>
<!-- Created with Inkscape (http://www.inkscape.org/) -->

<svg
   xmlns:osb="http://www.openswatchbook.org/uri/2009/osb"
   xmlns:dc="http://purl.org/dc/elements/1.1/"
   xmlns:cc="http://creativecommons.org/ns#"
   xmlns:rdf="http://www.w3.org/1999/02/22-rdf-syntax-ns#"
   xmlns:svg="http://www.w3.org/2000/svg"
   xmlns="http://www.w3.org/2000/svg"
   xmlns:sodipodi="http://sodipodi.sourceforge.net/DTD/sodipodi-0.dtd"
   xmlns:inkscape="http://www.inkscape.org/namespaces/inkscape"
   width="154.23109"
   height="70.141663"
   id="svg4610"
   version="1.1"
   inkscape:version="0.48.4 r9939"
   sodipodi:docname="rocket-chilli.svg"
   viewbox="0 0 154.23 70.14">
  <defs
     id="defs4612">
    <linearGradient
       id="linearGradient3770"
       osb:paint="solid"
       gradientTransform="matrix(3.046094,0,0,21.241695,8656.9816,-34293.405)">
      <stop
         style="stop-color:#9de0ad;stop-opacity:1;"
         offset="0"
         id="stop3772" />
    </linearGradient>
    <linearGradient
       id="linearGradient4579"
       osb:paint="solid"
       gradientTransform="matrix(3.046094,0,0,21.241695,8749.3406,-34765.85)">
      <stop
         style="stop-color:#9de0ad;stop-opacity:1;"
         offset="0"
         id="stop4581" />
    </linearGradient>
    <linearGradient
       id="linearGradient4583"
       osb:paint="solid"
       gradientTransform="matrix(3.046094,0,0,21.241695,8749.3406,-34765.85)">
      <stop
         style="stop-color:#9de0ad;stop-opacity:1;"
         offset="0"
         id="stop4585" />
    </linearGradient>
    <linearGradient
       id="linearGradient4587"
       osb:paint="solid"
       gradientTransform="matrix(3.046094,0,0,21.241695,8749.3406,-34765.85)">
      <stop
         style="stop-color:#9de0ad;stop-opacity:1;"
         offset="0"
         id="stop4589" />
    </linearGradient>
    <linearGradient
       id="linearGradient4591"
       osb:paint="solid"
       gradientTransform="matrix(3.046094,0,0,21.241695,8749.3406,-34765.85)">
      <stop
         style="stop-color:#9de0ad;stop-opacity:1;"
         offset="0"
         id="stop4593" />
    </linearGradient>
    <linearGradient
       id="linearGradient4595"
       osb:paint="solid"
       gradientTransform="matrix(3.046094,0,0,21.241695,8749.3406,-34765.85)">
      <stop
         style="stop-color:#9de0ad;stop-opacity:1;"
         offset="0"
         id="stop4597" />
    </linearGradient>
    <linearGradient
       id="linearGradient4599"
       osb:paint="solid"
       gradientTransform="matrix(3.046094,0,0,21.241695,8749.3406,-34765.85)">
      <stop
         style="stop-color:#9de0ad;stop-opacity:1;"
         offset="0"
         id="stop4601" />
    </linearGradient>
  </defs>
  <sodipodi:namedview
     id="base"
     pagecolor="#ffffff"
     bordercolor="#666666"
     borderopacity="1.0"
     inkscape:pageopacity="0.0"
     inkscape:pageshadow="2"
     inkscape:zoom="2.8"
     inkscape:cx="97.730359"
     inkscape:cy="-4.4735726"
     inkscape:document-units="px"
     inkscape:current-layer="layer1"
     showgrid="false"
     fit-margin-top="0"
     fit-margin-left="0"
     fit-margin-right="0"
     fit-margin-bottom="0"
     inkscape:window-width="1366"
     inkscape:window-height="706"
     inkscape:window-x="-8"
     inkscape:window-y="-8"
     inkscape:window-maximized="1" />
  <metadata
     id="metadata4615">
    <rdf:RDF>
      <cc:Work
         rdf:about="">
        <dc:format>image/svg+xml</dc:format>
        <dc:type
           rdf:resource="http://purl.org/dc/dcmitype/StillImage" />
        <dc:title></dc:title>
      </cc:Work>
    </rdf:RDF>
  </metadata>
  <g
     inkscape:label="Layer 1"
     inkscape:groupmode="layer"
     id="layer1"
     transform="translate(-165.74159,-163.00564)">
    <g
       id="g4704">
      <g
         id="text3530"
         style="font-size:15.68941879px;font-style:normal;font-variant:normal;font-weight:normal;font-stretch:normal;text-align:center;line-height:100%;letter-spacing:0px;word-spacing:0px;text-anchor:middle;fill:url(#linearGradient3770);fill-opacity:1;stroke:none;font-family:Museo Slab 500;-inkscape-font-specification:Museo Slab 500"
         transform="matrix(0,-1,1,0,0,0)">
        <path
           id="path4698"
           d="m -230.05447,179.72398 4.3616,0 0,-1.22376 -1.39634,0 0,-8.56631 2.60441,0 0,1.72582 1.36497,0 0,-3.01233 -9.50767,0 0,3.01233 1.36496,0 0,-1.72582 2.60441,0 0,8.56631 -1.39634,0 z"
           inkscape:connector-curvature="0" />
        <path
           id="path4700"
           d="m -221.8322,179.72398 4.34591,0 0,-1.22376 -1.39634,0 0,-3.67127 5.74225,0 0,3.67127 -1.39634,0 0,1.22376 4.34592,0 0,-1.22376 -1.38066,0 0,-8.64475 1.38066,0 0,-1.20807 -4.34592,0 0,1.20807 1.39634,0 0,3.68696 -5.74225,0 0,-3.68696 1.39634,0 0,-1.20807 -4.34591,0 0,1.20807 1.38065,0 0,8.64475 -1.38065,0 z"
           inkscape:connector-curvature="0" />
        <path
           id="path4702"
           d="m -208.53297,179.72398 8.28391,0 0,-2.6201 -1.36497,0 0,1.33359 -3.96937,0 0,-3.65559 3.92231,0 0,-1.28652 -3.92231,0 0,-3.56145 3.70266,0 0,1.28652 1.36496,0 0,-2.57303 -8.01719,0 0,1.20807 1.38065,0 0,8.64475 -1.38065,0 z"
           inkscape:connector-curvature="0" />
      </g>
      <g
         id="text3126"
         style="font-size:45.87759399px;font-style:normal;font-variant:normal;font-weight:normal;font-stretch:normal;text-align:center;line-height:89.99999762%;letter-spacing:0px;word-spacing:0px;text-anchor:middle;fill:url(#linearGradient3770);fill-opacity:1;stroke:none;font-family:Museo Sans 500;-inkscape-font-specification:'Museo Sans 500,'">
        <path
           id="path4685"
           style="font-weight:bold;line-height:89.99999762%;letter-spacing:0.94811147px;font-family:Museo 500;-inkscape-font-specification:Museo 500 Bold"
           d="m 168.72359,195.42204 4.5877,0 0,-12.89144 4.22068,0 c 0.86496,-0.022 1.52062,0.0794 1.96698,0.30394 0.44633,0.22462 0.86113,0.70442 1.24441,1.43939 l 4.4042,8.71663 c 0.49124,1.02459 1.05706,1.69363 1.69745,2.00712 0.64034,0.31349 1.57317,0.45495 2.79849,0.42436 l 2.24798,0 0,-3.94542 -0.5964,0 c -0.54864,0.0163 -1.01124,-0.0392 -1.38778,-0.1663 -0.3766,-0.12712 -0.67863,-0.42341 -0.90607,-0.88887 l -3.89955,-7.75321 c -0.29822,-0.5228 -0.59642,-0.89937 -0.8946,-1.12973 -0.29822,-0.23032 -0.45879,-0.3431 -0.48171,-0.33834 l 0,-0.0918 c 1.2463,-0.23989 2.5041,-1.05611 3.77338,-2.44869 1.26924,-1.39254 1.95357,-3.43597 2.053,-6.13031 -0.0478,-2.98485 -0.95006,-5.30737 -2.70674,-6.96757 -1.75673,-1.66014 -4.08116,-2.50313 -6.97331,-2.52897 l -14.13012,0 0,3.94542 2.98201,0 z m 4.5877,-16.83686 0,-11.60688 6.05576,0 c 1.71273,0.0125 3.04698,0.51519 4.00277,1.50821 0.95575,0.99307 1.44128,2.40187 1.4566,4.22642 -0.0134,1.83032 -0.50276,3.26206 -1.46807,4.29523 -0.96534,1.0332 -2.32636,1.55888 -4.08305,1.57702 z"
           inkscape:connector-curvature="0" />
        <path
           id="path4687"
           style="font-weight:bold;line-height:89.99999762%;letter-spacing:0.94811147px;font-family:Museo 500;-inkscape-font-specification:Museo 500 Bold"
           d="m 196.16749,183.76928 c 0.087,3.59944 1.3008,6.51645 3.64148,8.75104 2.34068,2.2346 5.28636,3.38534 8.83706,3.45225 3.55258,-0.0669 6.50591,-1.21766 8.86,-3.45225 2.35403,-2.23459 3.57551,-5.1516 3.66442,-8.75104 -0.0889,-3.57552 -1.31038,-6.4715 -3.66442,-8.68795 -2.35409,-2.21641 -5.30742,-3.3576 -8.86,-3.42357 -3.5507,0.066 -6.49638,1.20716 -8.83706,3.42357 -2.34069,2.21645 -3.55451,5.11243 -3.64148,8.68795 z m 4.54182,0 c 0.0583,-2.45153 0.83629,-4.42998 2.33399,-5.93533 1.49768,-1.50532 3.36526,-2.2795 5.60273,-2.32253 2.25943,0.043 4.14038,0.81721 5.64287,2.32253 1.50245,1.50535 2.28236,3.4838 2.33973,5.93533 -0.0574,2.47546 -0.83728,4.47493 -2.33973,5.99842 -1.50249,1.52351 -3.38344,2.30724 -5.64287,2.3512 -2.23747,-0.044 -4.10505,-0.8277 -5.60273,-2.3512 -1.4977,-1.52349 -2.2757,-3.52296 -2.33399,-5.99842 z"
           inkscape:connector-curvature="0" />
        <path
           id="path4689"
           style="font-weight:bold;line-height:89.99999762%;letter-spacing:0.94811147px;font-family:Museo 500;-inkscape-font-specification:Museo 500 Bold"
           d="m 226.68514,183.81516 c 0.0602,3.55739 1.21287,6.45528 3.45798,8.69369 2.2451,2.23842 5.22136,3.39299 8.92881,3.46372 2.05199,-0.0493 3.77945,-0.39421 5.1824,-1.03478 1.40291,-0.64058 2.46431,-1.28116 3.1842,-1.92174 0.71985,-0.64058 1.08121,-0.9855 1.08406,-1.03478 l -1.92683,-3.16552 c -0.0277,0.13382 -0.6834,0.66905 -1.96698,1.6057 -1.28362,0.93666 -3.02885,1.47189 -5.23571,1.60569 -2.22696,-0.0143 -4.12703,-0.73116 -5.70022,-2.15048 -1.57321,-1.41931 -2.39517,-3.4551 -2.46589,-6.10738 0.0468,-2.49359 0.80189,-4.49115 2.26518,-5.99268 1.46328,-1.5015 3.35379,-2.27185 5.67154,-2.31105 0.92231,-0.004 1.85323,0.18735 2.79277,0.57346 0.9395,0.38615 1.44606,0.99019 1.51967,1.81214 l 0,1.28456 4.03718,0 0,-2.38561 c -0.0513,-1.30492 -0.56556,-2.32951 -1.54283,-3.07376 -0.97731,-0.7442 -2.11008,-1.26924 -3.39829,-1.57511 -1.28826,-0.30582 -2.42442,-0.45365 -3.4085,-0.44347 -3.79155,0.0794 -6.80605,1.25112 -9.0435,3.51532 -2.23746,2.26424 -3.38247,5.14493 -3.43504,8.64208 z"
           inkscape:connector-curvature="0" />
        <path
           id="path4691"
           style="font-weight:bold;line-height:89.99999762%;letter-spacing:0.94811147px;font-family:Museo 500;-inkscape-font-specification:Museo 500 Bold"
           d="m 255.41426,195.42204 4.45007,0 0,-10.91872 1.74333,0 c 0.38516,-0.0143 0.79614,0.0373 1.23294,0.15483 0.43678,0.11757 0.79041,0.3871 1.06091,0.80858 l 4.22068,7.79909 c 0.46736,0.87262 0.96627,1.45564 1.49674,1.74906 0.53043,0.29343 1.31608,0.42914 2.35693,0.40716 l 3.21139,0 0,-3.80779 -1.42219,0 c -0.56106,0.008 -0.98733,-0.0535 -1.27882,-0.18351 -0.29153,-0.12998 -0.52283,-0.37465 -0.69389,-0.73403 l -3.44077,-6.28515 c -0.40622,-0.7149 -0.76368,-1.18896 -1.07238,-1.42219 -0.30873,-0.23319 -0.47121,-0.34024 -0.48744,-0.32113 l 0,-0.0918 c 0.007,0.0163 0.16533,-0.0965 0.47597,-0.33834 0.31061,-0.2418 0.73306,-0.71012 1.26736,-1.40498 l 6.28514,-8.62488 -5.09234,0 -5.36761,7.52383 c -0.31064,0.38328 -0.68721,0.64898 -1.12972,0.79711 -0.44254,0.14816 -0.87646,0.21889 -1.30176,0.21218 l -2.06447,0 0,-15.04766 c 0.007,-1.01404 -0.22461,-1.71557 -0.69389,-2.1046 -0.46929,-0.38897 -1.2167,-0.57439 -2.24224,-0.55626 l -4.40419,0 0,3.80779 1.88096,0 c 0.32305,-9.3e-4 0.57155,0.0813 0.7455,0.24659 0.17395,0.16538 0.26188,0.41961 0.26379,0.7627 z"
           inkscape:connector-curvature="0" />
        <path
           id="path4693"
           style="font-weight:bold;line-height:89.99999762%;letter-spacing:0.94811147px;font-family:Museo 500;-inkscape-font-specification:Museo 500 Bold"
           d="m 279.65603,183.81516 c 0.0554,3.51725 1.19471,6.40367 3.41783,8.65929 2.22312,2.25562 5.19747,3.42165 8.92308,3.49812 2.78128,-0.14146 4.96043,-0.70727 6.53747,-1.69745 1.577,-0.99018 2.37985,-1.55599 2.40855,-1.69745 l -1.92684,-3.16551 c -0.0335,0.11278 -0.66619,0.56391 -1.89816,1.35337 -1.23201,0.78947 -2.86255,1.24059 -4.89164,1.35337 -2.12182,-0.0134 -3.93396,-0.68624 -5.43642,-2.01859 -1.50248,-1.33234 -2.3512,-3.24388 -2.54617,-5.73462 l 16.92861,0 c 0.006,-0.0392 0.0286,-0.27048 0.0688,-0.6939 0.0401,-0.42339 0.0631,-0.80379 0.0688,-1.14119 -0.01,-3.08234 -0.86213,-5.64572 -2.55764,-7.69013 -1.69556,-2.04437 -4.17674,-3.10527 -7.44355,-3.18271 -3.37579,0.0449 -6.1437,1.1479 -8.30373,3.30887 -2.16005,2.16102 -3.27639,5.11053 -3.34902,8.84853 z m 4.7712,-2.70674 c 0.3737,-1.93255 1.17464,-3.40062 2.40281,-4.40419 1.22816,-1.00354 2.70578,-1.50819 4.43287,-1.51395 1.48334,0.006 2.73731,0.51041 3.76191,1.51395 1.02457,1.00357 1.59039,2.47163 1.69745,4.40419 z"
           inkscape:connector-curvature="0" />
        <path
           id="path4695"
           style="font-weight:bold;line-height:89.99999762%;letter-spacing:0.94811147px;font-family:Museo 500;-inkscape-font-specification:Museo 500 Bold"
           d="m 309.55861,186.9348 c 0.0549,2.54788 0.60262,4.44582 1.64307,5.69384 1.04044,1.24803 2.244,2.06532 3.61069,2.45187 1.36667,0.38656 2.56684,0.56157 3.6005,0.52504 0.48647,-0.004 0.86687,-0.0191 1.14119,-0.0459 0.27429,-0.0268 0.41383,-0.0421 0.41863,-0.0459 l 0,-3.94543 c -0.004,0.004 -0.0994,0.0191 -0.28674,0.0459 -0.18734,0.0268 -0.44349,0.0421 -0.76843,0.0459 -0.94719,0.0717 -1.97751,-0.22078 -3.09097,-0.8774 -1.11348,-0.65661 -1.71944,-2.10747 -1.81787,-4.35258 l 0,-10.64346 5.55111,0 0,-3.57841 -5.55111,0 0,-6.3769 -4.35832,0 0,6.3769 -3.11964,0 0,3.57841 3.02789,0 z"
           inkscape:connector-curvature="0" />
      </g>
      <g
         id="text3134"
         style="font-size:45.87759399px;font-style:normal;font-variant:normal;font-weight:normal;font-stretch:normal;text-align:center;line-height:89.99999762%;letter-spacing:0px;word-spacing:0px;text-anchor:middle;fill:url(#linearGradient3770);fill-opacity:1;stroke:none;font-family:Museo Sans 500;-inkscape-font-specification:'Museo Sans 500,'">
        <path
           id="path4672"
           style="font-weight:bold;line-height:89.99999762%;letter-spacing:0.94811147px;font-family:Museo 500;-inkscape-font-specification:Museo 500 Bold"
           d="m 184.22398,216.12693 c 0.0793,4.884 1.60665,8.91352 4.58197,12.08859 2.97531,3.17507 6.92264,4.81899 11.842,4.93178 2.72825,-0.0668 5.04022,-0.53467 6.93592,-1.4035 1.89566,-0.86883 3.33767,-1.73766 4.32604,-2.6065 0.9883,-0.86882 1.48559,-1.33665 1.49185,-1.40349 l -2.47736,-3.30315 c -0.007,0.0544 -0.41575,0.43499 -1.22509,1.14183 -0.80938,0.70685 -1.97557,1.4137 -3.49854,2.12054 -1.52303,0.70685 -3.35867,1.08746 -5.50694,1.14183 -3.37771,-0.0879 -6.15327,-1.32279 -8.32668,-3.70457 -2.17343,-2.38177 -3.29741,-5.38289 -3.37196,-9.00336 0.0745,-3.69977 1.18706,-6.64546 3.33755,-8.83706 2.15048,-2.19156 4.89163,-3.31363 8.22346,-3.36623 1.75191,9.9e-4 3.46656,0.34315 5.14396,1.0265 1.67735,0.68341 2.57768,1.70226 2.701,3.05656 l 0,1.83508 4.22069,0 0,-3.16552 c -0.0694,-1.71866 -0.79721,-3.09327 -2.18341,-4.12383 -1.38624,-1.0305 -3.01459,-1.77303 -4.88505,-2.22758 -1.8705,-0.45449 -3.56681,-0.67708 -5.08895,-0.66777 -4.73108,0.10135 -8.59621,1.67646 -11.59541,4.72533 -2.99921,3.04894 -4.54756,6.96377 -4.64505,11.74452 z"
           inkscape:connector-curvature="0" />
        <path
           id="path4674"
           style="font-weight:bold;line-height:89.99999762%;letter-spacing:0.94811147px;font-family:Museo 500;-inkscape-font-specification:Museo 500 Bold"
           d="m 220.75086,232.59677 4.45007,0 0,-10.87285 c -0.003,-0.55242 0.0258,-1.08765 0.086,-1.60569 0.0602,-0.51802 0.16916,-1.00737 0.32687,-1.46807 0.50655,-1.70412 1.4088,-3.07852 2.70674,-4.12319 1.29793,-1.04464 2.84245,-1.58179 4.63358,-1.61143 1.80926,0.0392 3.00779,0.60311 3.59561,1.69171 0.58778,1.08864 0.85731,2.46686 0.80858,4.13467 l 0,10.91872 c -0.007,1.02555 0.22459,1.77296 0.69389,2.24224 0.46927,0.46929 1.21668,0.70058 2.24224,0.69389 l 4.35832,0 0,-3.80779 -1.88096,0 c -0.32308,9.6e-4 -0.57158,-0.0812 -0.7455,-0.24659 -0.17398,-0.16534 -0.26191,-0.41958 -0.26379,-0.7627 l 0,-10.04707 c 0.0105,-2.96 -0.62988,-5.18312 -1.9211,-6.66937 -1.29127,-1.4862 -3.29648,-2.22979 -6.01563,-2.23077 -2.32349,0.0755 -4.214,0.65855 -5.67154,1.74906 -1.45756,1.09056 -2.442,2.23557 -2.95333,3.43504 l -0.0918,0 c 0.004,-0.0114 0.0191,-0.19495 0.0459,-0.55052 0.0268,-0.35553 0.0421,-0.8143 0.0459,-1.37631 l 0,-9.03777 c 0.007,-0.98155 -0.22462,-1.7022 -0.69389,-2.16195 -0.46929,-0.4597 -1.21671,-0.68717 -2.24224,-0.68242 l -4.40419,0 0,3.80779 1.88095,0 c 0.32305,-9.3e-4 0.57155,0.0813 0.7455,0.24659 0.17395,0.16537 0.26188,0.41961 0.2638,0.7627 z"
           inkscape:connector-curvature="0" />
        <path
           id="path4676"
           style="font-weight:bold;line-height:89.99999762%;letter-spacing:0.94811147px;font-family:Museo 500;-inkscape-font-specification:Museo 500 Bold"
           d="m 251.95237,204.84118 3.9913,0 0,-4.63357 -3.9913,0 z m -0.0917,24.81946 c -0.007,1.02555 0.2246,1.77296 0.69389,2.24224 0.46927,0.46929 1.21669,0.70058 2.24223,0.69389 l 4.35832,0 0,-3.80779 -1.88096,0 c -0.32306,9.6e-4 -0.57156,-0.0812 -0.7455,-0.24659 -0.17396,-0.16534 -0.26189,-0.41958 -0.26379,-0.7627 l 0,-15.46055 c 0.007,-1.02553 -0.22462,-1.77294 -0.69389,-2.24224 -0.46929,-0.46926 -1.21671,-0.70056 -2.24224,-0.69389 l -4.35831,0 0,3.80779 1.88095,0 c 0.32305,-9.4e-4 0.57155,0.0813 0.7455,0.24659 0.17395,0.16536 0.26188,0.4196 0.2638,0.7627 z"
           inkscape:connector-curvature="0" />
        <path
           id="path4678"
           style="font-weight:bold;line-height:89.99999762%;letter-spacing:0.94811147px;font-family:Museo 500;-inkscape-font-specification:Museo 500 Bold"
           d="m 266.37631,229.66064 c -0.007,1.02555 0.2246,1.77296 0.69389,2.24224 0.46928,0.46929 1.21669,0.70058 2.24224,0.69389 l 4.40419,0 0,-3.80779 -1.88096,0 c -0.32306,9.6e-4 -0.57156,-0.0812 -0.7455,-0.24659 -0.17396,-0.16534 -0.26189,-0.41958 -0.26379,-0.7627 l 0,-24.63595 c 0.007,-1.02552 -0.22462,-1.77293 -0.69389,-2.24224 -0.4693,-0.46925 -1.21671,-0.70055 -2.24224,-0.69389 l -4.40419,0 0,3.80779 1.88095,0 c 0.32305,-9.3e-4 0.57155,0.0813 0.7455,0.24659 0.17395,0.16537 0.26188,0.41961 0.2638,0.7627 z"
           inkscape:connector-curvature="0" />
        <path
           id="path4680"
           style="font-weight:bold;line-height:89.99999762%;letter-spacing:0.94811147px;font-family:Museo 500;-inkscape-font-specification:Museo 500 Bold"
           d="m 280.85473,229.66064 c -0.007,1.02555 0.2246,1.77296 0.69389,2.24224 0.46928,0.46929 1.21669,0.70058 2.24224,0.69389 l 4.40419,0 0,-3.80779 -1.88096,0 c -0.32306,9.6e-4 -0.57156,-0.0812 -0.7455,-0.24659 -0.17396,-0.16534 -0.26189,-0.41958 -0.26379,-0.7627 l 0,-24.63595 c 0.007,-1.02552 -0.22461,-1.77293 -0.69389,-2.24224 -0.46929,-0.46925 -1.2167,-0.70055 -2.24224,-0.69389 l -4.40419,0 0,3.80779 1.88096,0 c 0.32304,-9.3e-4 0.57154,0.0813 0.7455,0.24659 0.17394,0.16537 0.26188,0.41961 0.26379,0.7627 z"
           inkscape:connector-curvature="0" />
        <path
           id="path4682"
           style="font-weight:bold;line-height:89.99999762%;letter-spacing:0.94811147px;font-family:Museo 500;-inkscape-font-specification:Museo 500 Bold"
           d="m 295.74604,204.84118 3.9913,0 0,-4.63357 -3.9913,0 z m -0.0917,24.81946 c -0.007,1.02555 0.2246,1.77296 0.69389,2.24224 0.46928,0.46929 1.21669,0.70058 2.24224,0.69389 l 4.35831,0 0,-3.80779 -1.88096,0 c -0.32306,9.6e-4 -0.57156,-0.0812 -0.7455,-0.24659 -0.17396,-0.16534 -0.26189,-0.41958 -0.26379,-0.7627 l 0,-15.46055 c 0.007,-1.02553 -0.22462,-1.77294 -0.69389,-2.24224 -0.46929,-0.46926 -1.2167,-0.70056 -2.24224,-0.69389 l -4.35831,0 0,3.80779 1.88095,0 c 0.32305,-9.4e-4 0.57155,0.0813 0.7455,0.24659 0.17395,0.16536 0.26188,0.4196 0.2638,0.7627 z"
           inkscape:connector-curvature="0" />
      </g>
    </g>
  </g>
</svg>
